<mxfile host="65bd71144e">
    <diagram id="2ZvTK02ZTKCtmTFTc8Gj" name="Page-1">
        <mxGraphModel dx="807" dy="766" grid="1" gridSize="10" guides="1" tooltips="1" connect="1" arrows="1" fold="1" page="1" pageScale="1" pageWidth="850" pageHeight="1100" math="0" shadow="0">
            <root>
                <mxCell id="0"/>
                <mxCell id="1" parent="0"/>
                <mxCell id="39" value="" style="group;movable=0;resizable=0;rotatable=0;deletable=0;editable=0;connectable=0;" vertex="1" connectable="0" parent="1">
                    <mxGeometry x="160" y="120" width="490" height="302" as="geometry"/>
                </mxCell>
                <mxCell id="2" value="Root Directory&lt;br&gt;Index Node" style="html=1;fontFamily=Verdana;fillColor=#f8cecc;strokeColor=#b85450;movable=1;resizable=1;rotatable=1;deletable=1;editable=1;connectable=1;container=0;" vertex="1" parent="39">
                    <mxGeometry x="50" width="110" height="50" as="geometry"/>
                </mxCell>
                <mxCell id="3" value="Root Directory" style="swimlane;fontStyle=0;childLayout=stackLayout;horizontal=1;startSize=26;fillColor=#f8cecc;horizontalStack=0;resizeParent=1;resizeParentMax=0;resizeLast=0;collapsible=1;marginBottom=0;fontFamily=Verdana;strokeColor=#b85450;movable=1;resizable=1;rotatable=1;deletable=1;editable=1;connectable=1;container=0;" vertex="1" parent="39">
                    <mxGeometry x="195" y="56" width="140" height="234" as="geometry"/>
                </mxCell>
                <mxCell id="19" style="edgeStyle=orthogonalEdgeStyle;html=1;entryX=0.5;entryY=0;entryDx=0;entryDy=0;fontFamily=Verdana;movable=1;resizable=1;rotatable=1;deletable=1;editable=1;connectable=1;" edge="1" parent="39" source="2" target="3">
                    <mxGeometry relative="1" as="geometry"/>
                </mxCell>
                <mxCell id="21" value="Index Node 2" style="html=1;fontFamily=Verdana;fillColor=#fff2cc;strokeColor=#d6b656;movable=1;resizable=1;rotatable=1;deletable=1;editable=1;connectable=1;container=0;" vertex="1" parent="39">
                    <mxGeometry x="15" y="108" width="110" height="50" as="geometry"/>
                </mxCell>
                <mxCell id="22" value="Index Node 3" style="html=1;fontFamily=Verdana;fillColor=#d5e8d4;strokeColor=#82b366;movable=1;resizable=1;rotatable=1;deletable=1;editable=1;connectable=1;container=0;" vertex="1" parent="39">
                    <mxGeometry x="380" y="82" width="110" height="50" as="geometry"/>
                </mxCell>
                <mxCell id="24" value="&quot;file&quot; Data" style="html=1;strokeColor=#82b366;fontFamily=Verdana;fillColor=#d5e8d4;movable=1;resizable=1;rotatable=1;deletable=1;editable=1;connectable=1;container=0;" vertex="1" parent="39">
                    <mxGeometry x="380" y="172" width="110" height="50" as="geometry"/>
                </mxCell>
                <mxCell id="25" value="&quot;dir&quot; Directory" style="swimlane;fontStyle=0;childLayout=stackLayout;horizontal=1;startSize=26;fillColor=#fff2cc;horizontalStack=0;resizeParent=1;resizeParentMax=0;resizeLast=0;collapsible=1;marginBottom=0;fontFamily=Verdana;strokeColor=#d6b656;movable=1;resizable=1;rotatable=1;deletable=1;editable=1;connectable=1;container=0;" vertex="1" parent="39">
                    <mxGeometry y="198" width="140" height="104" as="geometry"/>
                </mxCell>
                <mxCell id="37" style="edgeStyle=orthogonalEdgeStyle;html=1;fontFamily=Verdana;movable=1;resizable=1;rotatable=1;deletable=1;editable=1;connectable=1;" edge="1" parent="39" source="22" target="24">
                    <mxGeometry relative="1" as="geometry"/>
                </mxCell>
                <mxCell id="34" style="edgeStyle=orthogonalEdgeStyle;html=1;exitX=0;exitY=0.5;exitDx=0;exitDy=0;entryX=1;entryY=0.5;entryDx=0;entryDy=0;fontFamily=Verdana;movable=1;resizable=1;rotatable=1;deletable=1;editable=1;connectable=1;" edge="1" parent="39" source="9" target="21">
                    <mxGeometry relative="1" as="geometry"/>
                </mxCell>
                <mxCell id="35" style="edgeStyle=orthogonalEdgeStyle;html=1;entryX=0.5;entryY=0;entryDx=0;entryDy=0;fontFamily=Verdana;movable=1;resizable=1;rotatable=1;deletable=1;editable=1;connectable=1;" edge="1" parent="39" source="21" target="25">
                    <mxGeometry relative="1" as="geometry"/>
                </mxCell>
                <mxCell id="36" style="edgeStyle=orthogonalEdgeStyle;html=1;entryX=0;entryY=0.5;entryDx=0;entryDy=0;fontFamily=Verdana;movable=1;resizable=1;rotatable=1;deletable=1;editable=1;connectable=1;" edge="1" parent="39" source="13" target="22">
                    <mxGeometry relative="1" as="geometry"/>
                </mxCell>
                <mxCell id="11" value="Directory Entry" style="swimlane;fontStyle=1;childLayout=stackLayout;horizontal=1;startSize=26;fillColor=#d5e8d4;horizontalStack=0;resizeParent=1;resizeParentMax=0;resizeLast=0;collapsible=1;marginBottom=0;align=center;fontFamily=Verdana;strokeColor=#82b366;movable=1;resizable=1;rotatable=1;deletable=1;editable=1;connectable=1;container=0;" vertex="1" parent="39">
                    <mxGeometry x="195" y="82" width="140" height="208" as="geometry"/>
                </mxCell>
                <mxCell id="12" value="Name: &quot;file&quot;" style="text;strokeColor=#82b366;fillColor=#d5e8d4;align=center;verticalAlign=top;spacingLeft=4;spacingRight=4;overflow=hidden;rotatable=1;points=[[0,0.5],[1,0.5]];portConstraint=eastwest;fontFamily=Verdana;movable=1;resizable=1;deletable=1;editable=1;connectable=1;container=0;" vertex="1" parent="39">
                    <mxGeometry x="195" y="108" width="140" height="26" as="geometry"/>
                </mxCell>
                <mxCell id="13" value="Index Node ID: 3" style="text;strokeColor=#82b366;fillColor=#d5e8d4;align=center;verticalAlign=top;spacingLeft=4;spacingRight=4;overflow=hidden;rotatable=1;points=[[0,0.5],[1,0.5]];portConstraint=eastwest;fontFamily=Verdana;movable=1;resizable=1;deletable=1;editable=1;connectable=1;container=0;" vertex="1" parent="39">
                    <mxGeometry x="195" y="134" width="140" height="26" as="geometry"/>
                </mxCell>
                <mxCell id="14" value="Type: File" style="text;strokeColor=#82b366;fillColor=#d5e8d4;align=center;verticalAlign=top;spacingLeft=4;spacingRight=4;overflow=hidden;rotatable=1;points=[[0,0.5],[1,0.5]];portConstraint=eastwest;fontFamily=Verdana;movable=1;resizable=1;deletable=1;editable=1;connectable=1;container=0;" vertex="1" parent="39">
                    <mxGeometry x="195" y="160" width="140" height="26" as="geometry"/>
                </mxCell>
                <mxCell id="7" value="Directory Entry" style="swimlane;fontStyle=1;childLayout=stackLayout;horizontal=1;startSize=26;fillColor=#fff2cc;horizontalStack=0;resizeParent=1;resizeParentMax=0;resizeLast=0;collapsible=1;marginBottom=0;align=center;fontFamily=Verdana;strokeColor=#d6b656;movable=1;resizable=1;rotatable=1;deletable=1;editable=1;connectable=1;container=0;" vertex="1" parent="39">
                    <mxGeometry x="195" y="186" width="140" height="104" as="geometry"/>
                </mxCell>
                <mxCell id="8" value="Name: &quot;dir&quot;" style="text;strokeColor=#d6b656;fillColor=#fff2cc;align=center;verticalAlign=top;spacingLeft=4;spacingRight=4;overflow=hidden;rotatable=1;points=[[0,0.5],[1,0.5]];portConstraint=eastwest;fontFamily=Verdana;movable=1;resizable=1;deletable=1;editable=1;connectable=1;container=0;" vertex="1" parent="39">
                    <mxGeometry x="195" y="212" width="140" height="26" as="geometry"/>
                </mxCell>
                <mxCell id="9" value="Index Node ID: 2" style="text;strokeColor=#d6b656;fillColor=#fff2cc;align=center;verticalAlign=top;spacingLeft=4;spacingRight=4;overflow=hidden;rotatable=1;points=[[0,0.5],[1,0.5]];portConstraint=eastwest;fontFamily=Verdana;movable=1;resizable=1;deletable=1;editable=1;connectable=1;container=0;" vertex="1" parent="39">
                    <mxGeometry x="195" y="238" width="140" height="26" as="geometry"/>
                </mxCell>
                <mxCell id="10" value="Type: Directory" style="text;strokeColor=#d6b656;fillColor=#fff2cc;align=center;verticalAlign=top;spacingLeft=4;spacingRight=4;overflow=hidden;rotatable=1;points=[[0,0.5],[1,0.5]];portConstraint=eastwest;fontFamily=Verdana;movable=1;resizable=1;deletable=1;editable=1;connectable=1;container=0;" vertex="1" parent="39">
                    <mxGeometry x="195" y="264" width="140" height="26" as="geometry"/>
                </mxCell>
                <mxCell id="26" value="Directory Entry" style="swimlane;fontStyle=0;childLayout=stackLayout;horizontal=1;startSize=26;fillColor=#dae8fc;horizontalStack=0;resizeParent=1;resizeParentMax=0;resizeLast=0;collapsible=1;marginBottom=0;align=center;fontFamily=Verdana;strokeColor=#6c8ebf;movable=1;resizable=1;rotatable=1;deletable=1;editable=1;connectable=1;container=0;" vertex="1" parent="39">
                    <mxGeometry y="224" width="140" height="78" as="geometry"/>
                </mxCell>
                <mxCell id="28" value="Directory Entry" style="text;strokeColor=#6c8ebf;fillColor=#dae8fc;align=center;verticalAlign=top;spacingLeft=4;spacingRight=4;overflow=hidden;rotatable=1;points=[[0,0.5],[1,0.5]];portConstraint=eastwest;fontFamily=Verdana;movable=1;resizable=1;deletable=1;editable=1;connectable=1;container=0;" vertex="1" parent="39">
                    <mxGeometry y="250" width="140" height="26" as="geometry"/>
                </mxCell>
                <mxCell id="29" value="..." style="text;strokeColor=#6c8ebf;fillColor=#dae8fc;align=center;verticalAlign=top;spacingLeft=4;spacingRight=4;overflow=hidden;rotatable=1;points=[[0,0.5],[1,0.5]];portConstraint=eastwest;fontFamily=Verdana;movable=1;resizable=1;deletable=1;editable=1;connectable=1;container=0;" vertex="1" parent="39">
                    <mxGeometry y="276" width="140" height="26" as="geometry"/>
                </mxCell>
            </root>
        </mxGraphModel>
    </diagram>
</mxfile>